<svg width="277" height="49" viewBox="0 0 277 49" fill="none" xmlns="http://www.w3.org/2000/svg">
<path d="M10.9404 38H3.34766L3.39648 33.1416H10.9404C13.1377 33.1416 14.9769 32.6615 16.458 31.7012C17.9554 30.7409 19.0785 29.3656 19.8271 27.5752C20.5921 25.7848 20.9746 23.6527 20.9746 21.1787V19.25C20.9746 17.3294 20.7549 15.6286 20.3154 14.1475C19.8923 12.6663 19.2575 11.4212 18.4111 10.4121C17.5811 9.40299 16.5557 8.63802 15.335 8.11719C14.1305 7.59635 12.7389 7.33594 11.1602 7.33594H3.20117V2.45312H11.1602C13.5202 2.45312 15.6768 2.85189 17.6299 3.64941C19.583 4.43066 21.2676 5.56185 22.6836 7.04297C24.1159 8.52409 25.2145 10.2982 25.9795 12.3652C26.7445 14.4323 27.127 16.7435 27.127 19.2988V21.1787C27.127 23.734 26.7445 26.0452 25.9795 28.1123C25.2145 30.1794 24.1159 31.9535 22.6836 33.4346C21.2513 34.8994 19.5423 36.0306 17.5566 36.8281C15.5872 37.6094 13.3818 38 10.9404 38ZM6.74121 2.45312V38H0.613281V2.45312H6.74121ZM44.3389 38.4883C42.3857 38.4883 40.6198 38.1709 39.041 37.5361C37.4785 36.8851 36.1439 35.9818 35.0371 34.8262C33.9466 33.6706 33.1084 32.3115 32.5225 30.749C31.9365 29.1865 31.6436 27.502 31.6436 25.6953V24.7188C31.6436 22.6517 31.9447 20.7799 32.5469 19.1035C33.1491 17.4271 33.9873 15.9948 35.0615 14.8066C36.1357 13.6022 37.4053 12.6826 38.8701 12.0479C40.335 11.4131 41.9219 11.0957 43.6309 11.0957C45.5189 11.0957 47.1709 11.4131 48.5869 12.0479C50.0029 12.6826 51.1748 13.5778 52.1025 14.7334C53.0465 15.8727 53.7464 17.2318 54.2021 18.8105C54.6742 20.3893 54.9102 22.1309 54.9102 24.0352V26.5498H34.5V22.3262H49.0996V21.8623C49.0671 20.8044 48.8555 19.8115 48.4648 18.8838C48.0905 17.9561 47.5127 17.2074 46.7314 16.6377C45.9502 16.068 44.9085 15.7832 43.6064 15.7832C42.6299 15.7832 41.7591 15.9948 40.9941 16.418C40.2454 16.8249 39.6188 17.4189 39.1143 18.2002C38.6097 18.9814 38.2191 19.9255 37.9424 21.0322C37.682 22.1227 37.5518 23.3516 37.5518 24.7188V25.6953C37.5518 26.8509 37.7064 27.9251 38.0156 28.918C38.3411 29.8945 38.8132 30.749 39.4316 31.4814C40.0501 32.2139 40.7988 32.7917 41.6777 33.2148C42.5566 33.6217 43.5576 33.8252 44.6807 33.8252C46.0967 33.8252 47.3581 33.5404 48.4648 32.9707C49.5716 32.401 50.5319 31.5954 51.3457 30.5537L54.4463 33.5566C53.8766 34.3867 53.1361 35.1842 52.2246 35.9492C51.3132 36.6979 50.1982 37.3083 48.8799 37.7803C47.5778 38.2523 46.0641 38.4883 44.3389 38.4883ZM70.291 33.8008C71.2513 33.8008 72.1139 33.6136 72.8789 33.2393C73.6602 32.8486 74.2868 32.3115 74.7588 31.6279C75.2471 30.9443 75.5156 30.1549 75.5645 29.2598H81.1064C81.0739 30.9688 80.5693 32.5231 79.5928 33.9229C78.6162 35.3226 77.3223 36.4375 75.7109 37.2676C74.0996 38.0814 72.3174 38.4883 70.3643 38.4883C68.346 38.4883 66.5882 38.1465 65.0908 37.4629C63.5934 36.763 62.3483 35.8027 61.3555 34.582C60.3626 33.3613 59.6139 31.9535 59.1094 30.3584C58.6211 28.7633 58.377 27.0544 58.377 25.2314V24.377C58.377 22.554 58.6211 20.8451 59.1094 19.25C59.6139 17.6387 60.3626 16.2227 61.3555 15.002C62.3483 13.7812 63.5934 12.8291 65.0908 12.1455C66.5882 11.4456 68.3379 11.0957 70.3398 11.0957C72.4557 11.0957 74.3112 11.5189 75.9062 12.3652C77.5013 13.1953 78.7546 14.359 79.666 15.8564C80.5938 17.3376 81.0739 19.0628 81.1064 21.0322H75.5645C75.5156 20.0557 75.2715 19.1768 74.832 18.3955C74.4089 17.598 73.8066 16.9632 73.0254 16.4912C72.2604 16.0192 71.3408 15.7832 70.2666 15.7832C69.0785 15.7832 68.0938 16.0273 67.3125 16.5156C66.5312 16.9876 65.9209 17.6387 65.4814 18.4688C65.042 19.2826 64.7246 20.2021 64.5293 21.2275C64.3503 22.2367 64.2607 23.2865 64.2607 24.377V25.2314C64.2607 26.3219 64.3503 27.3799 64.5293 28.4053C64.7083 29.4307 65.0176 30.3503 65.457 31.1641C65.9128 31.9616 66.5312 32.6045 67.3125 33.0928C68.0938 33.5648 69.0866 33.8008 70.291 33.8008ZM84.5 25.085V24.5234C84.5 22.6191 84.7767 20.8532 85.3301 19.2256C85.8835 17.5817 86.681 16.1576 87.7227 14.9531C88.7806 13.7324 90.0664 12.7884 91.5801 12.1211C93.11 11.4375 94.8353 11.0957 96.7559 11.0957C98.6927 11.0957 100.418 11.4375 101.932 12.1211C103.462 12.7884 104.756 13.7324 105.813 14.9531C106.871 16.1576 107.677 17.5817 108.23 19.2256C108.784 20.8532 109.061 22.6191 109.061 24.5234V25.085C109.061 26.9893 108.784 28.7552 108.23 30.3828C107.677 32.0104 106.871 33.4346 105.813 34.6553C104.756 35.8597 103.47 36.8037 101.956 37.4873C100.442 38.1546 98.7253 38.4883 96.8047 38.4883C94.8678 38.4883 93.1344 38.1546 91.6045 37.4873C90.0908 36.8037 88.805 35.8597 87.7471 34.6553C86.6891 33.4346 85.8835 32.0104 85.3301 30.3828C84.7767 28.7552 84.5 26.9893 84.5 25.085ZM90.3838 24.5234V25.085C90.3838 26.2731 90.5059 27.3962 90.75 28.4541C90.9941 29.512 91.3766 30.4398 91.8975 31.2373C92.4183 32.0348 93.0856 32.6615 93.8994 33.1172C94.7132 33.5729 95.6816 33.8008 96.8047 33.8008C97.8952 33.8008 98.8392 33.5729 99.6367 33.1172C100.451 32.6615 101.118 32.0348 101.639 31.2373C102.16 30.4398 102.542 29.512 102.786 28.4541C103.047 27.3962 103.177 26.2731 103.177 25.085V24.5234C103.177 23.3516 103.047 22.2448 102.786 21.2031C102.542 20.1452 102.151 19.2093 101.614 18.3955C101.093 17.5817 100.426 16.9469 99.6123 16.4912C98.8148 16.0192 97.8626 15.7832 96.7559 15.7832C95.6491 15.7832 94.6888 16.0192 93.875 16.4912C93.0775 16.9469 92.4183 17.5817 91.8975 18.3955C91.3766 19.2093 90.9941 20.1452 90.75 21.2031C90.5059 22.2448 90.3838 23.3516 90.3838 24.5234ZM130.105 32.5312V0.5H136.014V38H130.667L130.105 32.5312ZM112.918 25.085V24.5723C112.918 22.5703 113.154 20.7474 113.626 19.1035C114.098 17.4434 114.782 16.0192 115.677 14.8311C116.572 13.6266 117.662 12.707 118.948 12.0723C120.234 11.4212 121.683 11.0957 123.294 11.0957C124.889 11.0957 126.289 11.4049 127.493 12.0234C128.698 12.6419 129.723 13.529 130.569 14.6846C131.416 15.8239 132.091 17.1911 132.596 18.7861C133.1 20.3649 133.458 22.1227 133.67 24.0596V25.6953C133.458 27.5833 133.1 29.3086 132.596 30.8711C132.091 32.4336 131.416 33.7845 130.569 34.9238C129.723 36.0632 128.689 36.9421 127.469 37.5605C126.264 38.179 124.856 38.4883 123.245 38.4883C121.65 38.4883 120.21 38.1546 118.924 37.4873C117.654 36.82 116.572 35.8841 115.677 34.6797C114.782 33.4753 114.098 32.0592 113.626 30.4316C113.154 28.7878 112.918 27.0055 112.918 25.085ZM118.802 24.5723V25.085C118.802 26.2894 118.908 27.4124 119.119 28.4541C119.347 29.4958 119.697 30.4154 120.169 31.2129C120.641 31.9941 121.251 32.6126 122 33.0684C122.765 33.5078 123.676 33.7275 124.734 33.7275C126.069 33.7275 127.168 33.4346 128.03 32.8486C128.893 32.2627 129.568 31.4733 130.057 30.4805C130.561 29.4714 130.903 28.3483 131.082 27.1113V22.6924C130.984 21.7321 130.781 20.8369 130.472 20.0068C130.179 19.1768 129.78 18.4525 129.275 17.834C128.771 17.1992 128.144 16.7109 127.396 16.3691C126.663 16.0111 125.792 15.832 124.783 15.832C123.709 15.832 122.798 16.0599 122.049 16.5156C121.3 16.9714 120.682 17.598 120.193 18.3955C119.721 19.193 119.371 20.1208 119.144 21.1787C118.916 22.2367 118.802 23.3678 118.802 24.5723ZM153.812 38.4883C151.858 38.4883 150.092 38.1709 148.514 37.5361C146.951 36.8851 145.617 35.9818 144.51 34.8262C143.419 33.6706 142.581 32.3115 141.995 30.749C141.409 29.1865 141.116 27.502 141.116 25.6953V24.7188C141.116 22.6517 141.417 20.7799 142.02 19.1035C142.622 17.4271 143.46 15.9948 144.534 14.8066C145.608 13.6022 146.878 12.6826 148.343 12.0479C149.808 11.4131 151.395 11.0957 153.104 11.0957C154.992 11.0957 156.644 11.4131 158.06 12.0479C159.476 12.6826 160.647 13.5778 161.575 14.7334C162.519 15.8727 163.219 17.2318 163.675 18.8105C164.147 20.3893 164.383 22.1309 164.383 24.0352V26.5498H143.973V22.3262H158.572V21.8623C158.54 20.8044 158.328 19.8115 157.938 18.8838C157.563 17.9561 156.985 17.2074 156.204 16.6377C155.423 16.068 154.381 15.7832 153.079 15.7832C152.103 15.7832 151.232 15.9948 150.467 16.418C149.718 16.8249 149.091 17.4189 148.587 18.2002C148.082 18.9814 147.692 19.9255 147.415 21.0322C147.155 22.1227 147.024 23.3516 147.024 24.7188V25.6953C147.024 26.8509 147.179 27.9251 147.488 28.918C147.814 29.8945 148.286 30.749 148.904 31.4814C149.523 32.2139 150.271 32.7917 151.15 33.2148C152.029 33.6217 153.03 33.8252 154.153 33.8252C155.569 33.8252 156.831 33.5404 157.938 32.9707C159.044 32.401 160.005 31.5954 160.818 30.5537L163.919 33.5566C163.349 34.3867 162.609 35.1842 161.697 35.9492C160.786 36.6979 159.671 37.3083 158.353 37.7803C157.05 38.2523 155.537 38.4883 153.812 38.4883ZM195.34 21.9355H186.282L186.233 17.4678H194.144C195.478 17.4678 196.609 17.2725 197.537 16.8818C198.481 16.4749 199.197 15.8971 199.686 15.1484C200.174 14.3835 200.418 13.4639 200.418 12.3896C200.418 11.2015 200.19 10.2331 199.734 9.48438C199.279 8.73568 198.579 8.19043 197.635 7.84863C196.707 7.50684 195.519 7.33594 194.07 7.33594H188.138V38H182.01V2.45312H194.07C196.023 2.45312 197.765 2.6403 199.295 3.01465C200.841 3.389 202.151 3.97493 203.226 4.77246C204.316 5.55371 205.138 6.54655 205.691 7.75098C206.261 8.9554 206.546 10.3877 206.546 12.0479C206.546 13.5127 206.196 14.8555 205.496 16.0762C204.796 17.2806 203.763 18.2653 202.396 19.0303C201.028 19.7952 199.327 20.251 197.293 20.3975L195.34 21.9355ZM195.071 38H184.354L187.112 33.1416H195.071C196.455 33.1416 197.61 32.9137 198.538 32.458C199.466 31.986 200.158 31.3431 200.613 30.5293C201.085 29.6992 201.321 28.7308 201.321 27.624C201.321 26.4684 201.118 25.4674 200.711 24.6211C200.304 23.7585 199.661 23.0993 198.782 22.6436C197.903 22.1715 196.756 21.9355 195.34 21.9355H188.455L188.504 17.4678H197.464L198.855 19.1523C200.809 19.2174 202.412 19.6488 203.665 20.4463C204.935 21.2438 205.879 22.2773 206.497 23.5469C207.116 24.8164 207.425 26.1836 207.425 27.6484C207.425 29.9108 206.928 31.807 205.936 33.3369C204.959 34.8669 203.551 36.0306 201.712 36.8281C199.873 37.6094 197.659 38 195.071 38ZM219.314 0.5V38H213.406V0.5H219.314ZM224.637 25.085V24.5234C224.637 22.6191 224.913 20.8532 225.467 19.2256C226.02 17.5817 226.818 16.1576 227.859 14.9531C228.917 13.7324 230.203 12.7884 231.717 12.1211C233.247 11.4375 234.972 11.0957 236.893 11.0957C238.829 11.0957 240.555 11.4375 242.068 12.1211C243.598 12.7884 244.892 13.7324 245.95 14.9531C247.008 16.1576 247.814 17.5817 248.367 19.2256C248.921 20.8532 249.197 22.6191 249.197 24.5234V25.085C249.197 26.9893 248.921 28.7552 248.367 30.3828C247.814 32.0104 247.008 33.4346 245.95 34.6553C244.892 35.8597 243.606 36.8037 242.093 37.4873C240.579 38.1546 238.862 38.4883 236.941 38.4883C235.005 38.4883 233.271 38.1546 231.741 37.4873C230.228 36.8037 228.942 35.8597 227.884 34.6553C226.826 33.4346 226.02 32.0104 225.467 30.3828C224.913 28.7552 224.637 26.9893 224.637 25.085ZM230.521 24.5234V25.085C230.521 26.2731 230.643 27.3962 230.887 28.4541C231.131 29.512 231.513 30.4398 232.034 31.2373C232.555 32.0348 233.222 32.6615 234.036 33.1172C234.85 33.5729 235.818 33.8008 236.941 33.8008C238.032 33.8008 238.976 33.5729 239.773 33.1172C240.587 32.6615 241.255 32.0348 241.775 31.2373C242.296 30.4398 242.679 29.512 242.923 28.4541C243.183 27.3962 243.313 26.2731 243.313 25.085V24.5234C243.313 23.3516 243.183 22.2448 242.923 21.2031C242.679 20.1452 242.288 19.2093 241.751 18.3955C241.23 17.5817 240.563 16.9469 239.749 16.4912C238.951 16.0192 237.999 15.7832 236.893 15.7832C235.786 15.7832 234.826 16.0192 234.012 16.4912C233.214 16.9469 232.555 17.5817 232.034 18.3955C231.513 19.2093 231.131 20.1452 230.887 21.2031C230.643 22.2448 230.521 23.3516 230.521 24.5234ZM271.048 11.584H276.395V37.2676C276.395 39.6439 275.89 41.6621 274.881 43.3223C273.872 44.9824 272.464 46.2438 270.657 47.1064C268.851 47.9854 266.759 48.4248 264.383 48.4248C263.374 48.4248 262.251 48.2783 261.014 47.9854C259.793 47.6924 258.605 47.2204 257.449 46.5693C256.31 45.9346 255.358 45.0964 254.593 44.0547L257.352 40.5879C258.296 41.7109 259.337 42.5329 260.477 43.0537C261.616 43.5745 262.812 43.835 264.065 43.835C265.416 43.835 266.564 43.5827 267.508 43.0781C268.468 42.5898 269.209 41.8656 269.729 40.9053C270.25 39.945 270.511 38.7731 270.511 37.3896V17.5654L271.048 11.584ZM253.104 25.085V24.5723C253.104 22.5703 253.348 20.7474 253.836 19.1035C254.324 17.4434 255.024 16.0192 255.936 14.8311C256.847 13.6266 257.954 12.707 259.256 12.0723C260.558 11.4212 262.031 11.0957 263.675 11.0957C265.384 11.0957 266.84 11.4049 268.045 12.0234C269.266 12.6419 270.283 13.529 271.097 14.6846C271.91 15.8239 272.545 17.1911 273.001 18.7861C273.473 20.3649 273.823 22.1227 274.051 24.0596V25.6953C273.839 27.5833 273.481 29.3086 272.977 30.8711C272.472 32.4336 271.805 33.7845 270.975 34.9238C270.145 36.0632 269.119 36.9421 267.898 37.5605C266.694 38.179 265.27 38.4883 263.626 38.4883C262.015 38.4883 260.558 38.1546 259.256 37.4873C257.97 36.82 256.863 35.8841 255.936 34.6797C255.024 33.4753 254.324 32.0592 253.836 30.4316C253.348 28.7878 253.104 27.0055 253.104 25.085ZM258.987 24.5723V25.085C258.987 26.2894 259.101 27.4124 259.329 28.4541C259.573 29.4958 259.939 30.4154 260.428 31.2129C260.932 31.9941 261.567 32.6126 262.332 33.0684C263.113 33.5078 264.033 33.7275 265.091 33.7275C266.474 33.7275 267.605 33.4346 268.484 32.8486C269.38 32.2627 270.063 31.4733 270.535 30.4805C271.023 29.4714 271.365 28.3483 271.561 27.1113V22.6924C271.463 21.7321 271.259 20.8369 270.95 20.0068C270.657 19.1768 270.258 18.4525 269.754 17.834C269.249 17.1992 268.615 16.7109 267.85 16.3691C267.085 16.0111 266.181 15.832 265.14 15.832C264.082 15.832 263.162 16.0599 262.381 16.5156C261.6 16.9714 260.957 17.598 260.452 18.3955C259.964 19.193 259.598 20.1208 259.354 21.1787C259.109 22.2367 258.987 23.3678 258.987 24.5723Z" fill="#00A2DC"/>
</svg>
